<!-- /assets/images/wave.svg -->
<svg xmlns="http://www.w3.org/2000/svg" viewBox="0 0 1200 120" preserveAspectRatio="none">
  <defs>
    <linearGradient id="waveGradient1" x1="0%" y1="0%" x2="100%" y2="0%">
      <stop offset="0%" style="stop-color:#088395;stop-opacity:0.2" />
      <stop offset="50%" style="stop-color:#0A4D68;stop-opacity:0.3" />
      <stop offset="100%" style="stop-color:#088395;stop-opacity:0.2" />
    </linearGradient>
    <linearGradient id="waveGradient2" x1="0%" y1="0%" x2="100%" y2="0%">
      <stop offset="0%" style="stop-color:#0A4D68;stop-opacity:0.15" />
      <stop offset="50%" style="stop-color:#088395;stop-opacity:0.25" />
      <stop offset="100%" style="stop-color:#0A4D68;stop-opacity:0.15" />
    </linearGradient>
  </defs>
  
  <!-- First wave layer -->
  <path fill="url(#waveGradient1)" d="M0,0V46.29c47.79,22.2,103.59,32.17,158,28,70.36-5.37,136.33-33.31,206.8-37.5C438.64,32.43,512.34,53.67,583,72.05c69.27,18,138.3,24.88,209.4,13.08,36.15-6,69.85-17.84,104.45-29.34C989.49,25,1113-14.29,1200,52.47V0Z" opacity="0.5">
    <animate attributeName="d" dur="12s" repeatCount="indefinite" values="
      M0,0V46.29c47.79,22.2,103.59,32.17,158,28,70.36-5.37,136.33-33.31,206.8-37.5C438.64,32.43,512.34,53.67,583,72.05c69.27,18,138.3,24.88,209.4,13.08,36.15-6,69.85-17.84,104.45-29.34C989.49,25,1113-14.29,1200,52.47V0Z;
      M0,0V36.29c57.79,32.2,93.59,42.17,148,38,80.36-5.37,146.33-43.31,216.8-47.5C448.64,22.43,522.34,43.67,593,62.05c79.27,18,148.3,34.88,219.4,23.08,46.15-6,79.85-27.84,114.45-39.34C1019.49,15,1103-24.29,1200,42.47V0Z;
      M0,0V46.29c47.79,22.2,103.59,32.17,158,28,70.36-5.37,136.33-33.31,206.8-37.5C438.64,32.43,512.34,53.67,583,72.05c69.27,18,138.3,24.88,209.4,13.08,36.15-6,69.85-17.84,104.45-29.34C989.49,25,1113-14.29,1200,52.47V0Z" />
  </path>
  
  <!-- Second wave layer -->
  <path fill="url(#waveGradient2)" d="M0,0V15.81C13,36.92,27.64,56.86,47.69,72.05,99.41,111.27,165,111,224.58,91.58c31.15-10.15,60.09-26.07,89.67-39.8,40.92-19,84.73-46,130.83-49.67,36.26-2.85,70.9,9.42,98.6,31.56,31.77,25.39,62.32,62,103.63,73,40.44,10.79,81.35-6.69,119.13-24.28s75.16-39,116.92-43.05c59.73-5.85,113.28,22.88,168.9,38.84,30.2,8.66,59,6.17,87.09-7.5,22.43-10.89,48-26.93,60.65-49.24V0Z" opacity="0.7">
    <animate attributeName="d" dur="18s" repeatCount="indefinite" values="
      M0,0V15.81C13,36.92,27.64,56.86,47.69,72.05,99.41,111.27,165,111,224.58,91.58c31.15-10.15,60.09-26.07,89.67-39.8,40.92-19,84.73-46,130.83-49.67,36.26-2.85,70.9,9.42,98.6,31.56,31.77,25.39,62.32,62,103.63,73,40.44,10.79,81.35-6.69,119.13-24.28s75.16-39,116.92-43.05c59.73-5.85,113.28,22.88,168.9,38.84,30.2,8.66,59,6.17,87.09-7.5,22.43-10.89,48-26.93,60.65-49.24V0Z;
      M0,0V25.81C23,46.92,37.64,66.86,57.69,82.05,109.41,121.27,175,121,234.58,101.58c41.15-10.15,70.09-36.07,99.67-49.8,50.92-19,94.73-56,140.83-59.67,46.26-2.85,80.9,19.42,108.6,41.56,41.77,25.39,72.32,72,113.63,83,50.44,10.79,91.35-16.69,129.13-34.28s85.16-49,126.92-53.05c69.73-5.85,123.28,32.88,178.9,48.84,40.2,8.66,69,16.17,97.09,2.5,32.43-10.89,58-36.93,70.65-59.24V0Z;
      M0,0V15.81C13,36.92,27.64,56.86,47.69,72.05,99.41,111.27,165,111,224.58,91.58c31.15-10.15,60.09-26.07,89.67-39.8,40.92-19,84.73-46,130.83-49.67,36.26-2.85,70.9,9.42,98.6,31.56,31.77,25.39,62.32,62,103.63,73,40.44,10.79,81.35-6.69,119.13-24.28s75.16-39,116.92-43.05c59.73-5.85,113.28,22.88,168.9,38.84,30.2,8.66,59,6.17,87.09-7.5,22.43-10.89,48-26.93,60.65-49.24V0Z" />
  </path>
</svg>
